/* XPM */
static char *f086eda687e54b9df0561046d9a6cd12LmV1dpY3DrA9Uz6f[] = {
/* columns rows colors chars-per-pixel */
"64 96 183 2 ",
"   c None",
".  c black",
"X  c #0B080A",
"o  c #161B29",
"O  c #1A1E2C",
"+  c #3C1E23",
"@  c #1C222E",
"#  c #2B2226",
"$  c #23232B",
"%  c #2C2B2A",
"&  c #262126",
"*  c #322224",
"=  c #3F2122",
"-  c #34262A",
";  c #3E2729",
":  c #3E292B",
">  c #372A2A",
",  c #3D3025",
"<  c #222631",
"1  c #262B36",
"2  c #2A2C35",
"3  c #2A2E38",
"4  c #352E36",
"5  c #3B2E35",
"6  c #372F38",
"7  c #2C313A",
"8  c #32353D",
"9  c #3A333B",
"0  c #34393F",
"q  c #3C373B",
"w  c #45261E",
"e  c #47281E",
"r  c #4B2B1C",
"t  c #502F1C",
"y  c #4F301C",
"u  c #4E3A1D",
"i  c #563617",
"p  c #5C3C16",
"a  c #53331A",
"s  c #583719",
"d  c #57391A",
"f  c #5B3B19",
"g  c #583817",
"h  c #603F15",
"j  c #422421",
"k  c #472821",
"l  c #4A2B22",
"z  c #412D2E",
"x  c #4F3223",
"c  c #49372A",
"v  c #523223",
"b  c #5A3B22",
"n  c #523E24",
"m  c #412F31",
"M  c #453534",
"N  c #463C3C",
"B  c #4B3E36",
"V  c #50373B",
"C  c #5E4119",
"Z  c #654315",
"A  c #684715",
"S  c #674817",
"D  c #6A4815",
"F  c #63441A",
"G  c #69471C",
"H  c #66491A",
"J  c #6D4C1B",
"K  c #714E1A",
"L  c #6F501F",
"P  c #75521C",
"I  c #79561D",
"U  c #7C591F",
"Y  c #58432C",
"T  c #4A413E",
"R  c #52413F",
"E  c #6A4A24",
"W  c #704F20",
"Q  c #745322",
"!  c #785623",
"~  c #7D5B21",
"^  c #6E5339",
"/  c #363B42",
"(  c #393E44",
")  c #443C42",
"_  c #3C4146",
"`  c #3F434A",
"'  c #454144",
"]  c #41454C",
"[  c #494749",
"{  c #454A4E",
"}  c #4C4947",
"|  c #574B49",
" . c #574A46",
".. c #494D52",
"X. c #464A52",
"o. c #4D5255",
"O. c #4E5259",
"+. c #555B55",
"@. c #5D5A55",
"#. c #52555C",
"$. c #555A5C",
"%. c #595E59",
"&. c #585355",
"*. c #575151",
"=. c #645E59",
"-. c #615954",
";. c #5C625C",
":. c #64635D",
">. c #6C6059",
",. c #5B5E62",
"<. c #5E6365",
"1. c #626761",
"2. c #646A64",
"3. c #6A6C66",
"4. c #65686B",
"5. c #6B6F69",
"6. c #64646A",
"7. c #736A64",
"8. c #687067",
"9. c #6D726B",
"0. c #6F796F",
"q. c #677067",
"w. c #72746E",
"e. c #70786F",
"r. c #6B6E72",
"t. c #726B7E",
"y. c #6C7170",
"u. c #757672",
"i. c #727A71",
"p. c #797C76",
"a. c #777A7A",
"s. c #7B7E7A",
"d. c #757576",
"f. c #815E22",
"g. c #856224",
"h. c #896625",
"j. c #8D6927",
"k. c #896728",
"l. c #8C6929",
"z. c #916D2A",
"x. c #95712B",
"c. c #9A762E",
"v. c #81776E",
"b. c #807E7D",
"n. c #7C827C",
"m. c #788077",
"M. c #888175",
"N. c #81847E",
"B. c #82887E",
"V. c #797B80",
"C. c #7F8280",
"Z. c #838583",
"A. c #858985",
"S. c #8A8A86",
"D. c #8C8D8A",
"F. c #838488",
"G. c #8D928B",
"H. c #91938E",
"J. c #8F9093",
"K. c #959692",
"L. c #969995",
"P. c #999A95",
"I. c #9C9D99",
"U. c #A09E9C",
"Y. c #9DA19B",
"T. c #A1A19D",
"R. c #A3A29F",
"E. c #A4A5A1",
"W. c #A5A9A4",
"Q. c #AAA9A6",
"!. c #ACADA9",
"~. c #AAA7A5",
"^. c #B3ABAA",
"/. c #ACB0AA",
"(. c #B2B2AE",
"). c #BFB5AB",
"_. c #B4B5B1",
"`. c #BDBDBB",
"'. c #B8B9B6",
"]. c #C4B59F",
"[. c #C1C0BE",
"{. c #C7C6C5",
"}. c #D3D2D1",
/* pixels */
". . . . . . . . . . . . . . . . . . . . . . . . . . . . . . . . . . . . . . . . . . . . . . . . . . . . . . . . . . . . . . . . ",
". . . . . . . . . . . . . . . . . . . . . . . . . . . . . . . . . . . . . . . . . . . . . . . . . . . . . . . . . . . . . . . . ",
". . . . . . . . . . . . . . . . . . . . . . . . . . . . . . . . . . . . . . . . . . . . . . . . . . . . . . . . . . . . . . . . ",
". . . . . . . . . . . . . . . . . . . . . . . . . . . . . . . . . . . . . . . . . . . . . . . . . . . . . . . . . . . . . . . . ",
". . . . . . . . . . . . . . . . . . . . . . . . . . . . . . . . . . . . . . . . . . . . . . . . . . . . . . . . . . . . . . . . ",
". . . . . . . . . . . . . . . . . . . . . . . . . . . . . . . . . . . . . . . . . . . . . . . . . . . . . . . . . . . . . . . . ",
". . . . . . . . . . . . . . . . . . . . . . . . . . . . . . . . . . . . . . . . . . . . . . . . . . . . . . . . . . . . . . . . ",
". . . . . . . . . . . . . . . . . . . . . . . . . . . . . . . . . . . . . . . . . . . . . . . . . . . . . . . . . . . . . . . . ",
". . . . . . . . . . . . . . . . . . . . . . . . . . . . . . . . . . . . . . . . . . . . . . . . . . . . . . . . . . . . . . . . ",
". . . . . . . . . . . . . . . . . . . . . . . . . . . . . . . . . . . . . . . . . . . . . . . . . . . . . . . . . . . . . . . . ",
". . . . . . . . . . . . . . . . . . . . . . . . . . . . . . . . . . . . . . . . . . . . . . . . . . . . . . . . . . . . . . . . ",
". . . . . . . . . . . . . . . . . . . . . . . . . . . . . . . . . . . . . . . . . . . . . . . . . . . . . . . . . . . . . . . . ",
". . . . . . . . . . . . . . . . . . . . . . . . . . . . . . . . . . . . . . . . . . . . . . . . . . . . . . . . . . . . . . . . ",
". . . . . . . . . . . . . . . . . . . . . . . . . . . . . . . . . . . . . . . . . . . . . . . . . . . . . . . . . . . . . . . . ",
". . . . . . . . . . . . . . . . . . . . . . . .       . . . . . . . . . . . . . . . . . . . . . . . . . . . . . . . . . . . . . ",
". . . . . . . . . . . . . . . . . . . .     S.S.S.T.R.E.Q.Q.Q.!.~.S.S.) ) ) ) ) 9 9   . . . . . . . . . . . . . . . . . . . . . ",
". . . . . . . . . . . . . . . . X   S.S.I.I.U.P.P.p.o M.P.I.T.!.(.P.w.1 Q.E.S.w.S.) ) ) ) 6 . . . . . . . . . . . . . . . . . . ",
". . . . . . . . . . . . . .     ^.!.Q.R.B...o.y.n.3.3.@ p.u.s.p.w.A.p.( E.Z.L.Z.w.w.w.1 O.6.' )   S.. . . . . . . . . . . . . . ",
". . . . . . . . . . . . .   ).^._.!.Y.G.@ @ H.A.p.u.< S.A.w.w.p.u.9.5.#.Z.2.2.i.Z.1 1 D.D.S.T.H.) q i.    . . . . . . . . . . . ",
". . . . . . . . . . .   ).U.S.K.A.p.p.9.< !.p.w.w.@ S.B.;.;.9.5.1.1.1 ( I.1.;.w.w.1 D._.Z.Z.Z.Z.N.w.O q i.M.7.  . . . . . . . . ",
". . . . . . . .     ].~.r.o O 0.i.9.w.n.#.K.w.%.%.6.A.;.;.;.;.1.9.1 O.L.s.%.p.i.7 / K.2.3.w.w.s.w.n.1 E.9 9 i.i.7.. . . . . . . ",
". . . . . . .   S.P.`.r.m.@ O w.9.w.s.Z.7 9.i.i.7 3.` 4.( 1 0 ( 8 < <.( u.u.+.8 T.I.n.9.i.3.w.w.9.7 Q.P.w.K.) 9 4 v.  . . . . . ",
". . . . .   S.E.^.I.Q.n.p.1 w.+.+.+.i.1 O #.4.9.` K.T.H.W.W.O.1 1 !.P./ 1 1 ] ..K.%.%.i.p.w.1.1 1 V.'.9.i.p.L./ 4 4 4   . . . . ",
". .   S.K.S.d.D.B.Z.w.p.w...+.$.O.1 ,.!.D.L.s.( w.P.9.9.w.p.A.w./ T.S.K.Z.Z.D.A.1 1 w.%.;.9.3 1 E.E.w.i.%.%.;.( K.n.7 4 4   . . ",
"    t.E.R.a.Z.p.w.w.9.i.7 p.A.A.w.7 $.p.s.s.u.8 1 S.S.1.2.1.2.1.@ O.!.n.w.w.s.s.s.1 8 w.7 7 u.u.N.w.2.;.+.9.( Z.G.A.O.w.D.&.    ",
"u.K.!.r.G.o.4.0.w.5.u.] $.I.5.1.;.5.7 9.9.9.w.0.0.< D.n.i.i.w.w.@ @ D.{ 1.1.w.w.1 L.I.d.w.9.1 o.( s.i.;.w.w...E.9.w.8 r.E.L.*.4 ",
"S.E.5.B.w.s.{ 9.9./ 8 w.A.i.1.1.0.2.1.7 i.i.i.' 9 $ & V Y M i @ @ i i i [ $.w.` 8 1.1.i.W.w.@ Y.s...w.+.( I.T.2.9.u.n.J.P.w.p.6 ",
"4.H.i.0.s.i.i.o o _ ( / 1 1.9.9.2.9.5.7 _ q , x i a F = e e e # * r r e a r r ' &.*.e.e.1.i.@ D.P.F.` u.r.S.w.:.w.i.] K.s.w.w.w.",
"{ 9.1.s.p.3.w.#.G.P.i.0.3.1 7 2.w.w.w.1 B i r = r t = = e e e = * r a j r r r + j a } ..{ i.< E.S.a.#.o.u.2.o.` ] $.[.P.s.n.w.w.",
"3.;.n.n.9.;...E.L.A.i.2.w.i.8 @ < 2 , a r r r j e w = = w w e = j e r = e e r = + r r b  .( 1 L.L.i./ $.#.o.4.s.4.`.T.5.5.n.w.i.",
";.1 3 3 ` ( 8 R.u.u.i.u.2.@ 1 o.c i a = y r e j w w j + w e e = * e r j j e r e + e e e r Y >.W.n.Z.s./ n.`.(.!.L._ i.9.w.s.w.i.",
"< 3 A.n.` ( 5.,.w.u.u.1.;./ 1 i e r r = t e e = w w j + e w e = * e r r j e e r = e e e j r r r r j a 8 E.p.w.w.3 p.{ ` _ _ ] 7 ",
"4.W.D.G.;.i.p.i./ 8 8 _ ( < i r e e e = r r e j w e e j r r r $ $ f a i j r r r = e e r = e e r r + r r N @.1.9.1 9.n.[.'.[._.Y.",
"Z.D.3.u.2.u.u.u.%.o.3 3 8 a r w j e e j r e e j w e e j a p a $ $ p r p j a a a = e r e = e e e r j r r r N ' 5.2.1 %.K.D.A.n.n.",
"Z.0.i.1.i.w.w.u.w.2.) e a y e e j e e j r e e j f f h j Z Z a @ @ Z i e j Z D G = a r e = a r r r j r e r r 7.2.e.1 Z.n.3.3.e.i.",
"o.i.1.;.w.w.w.i.*.x a j r r e w w e r j r a f e K Z Z j Z Z i @ @ Z i j j J i A j d E b = r r r e w a r r e r r 2 n.W.;.;.5.i.i.",
"w.w.;.e.3.i.9.c a r r j e r e w w e a j a p Z e K Z Z j Z Z i @ @ Z Z j j J Z Z j D G a + f i i e j e b r + w r a i i.<.3.2.3.0.",
"1 ;.w.3.i.[ x j r y e j j r e w e a r j Z Z Z j D Z Z j Z Z i @ @ Z Z j F Z Z Z j A P Z + p F f i j t b a + j r r j w.1 1 / / { ",
"1 3 8 1.N a d + y r r j j r r e e F i j Z Z J j A Z j j Z i i @ @ Z Z Z j A Z Z j Z I Z + Z P h h j p g E + = a a + a i 1 7 4.{ ",
"E.O.7 2 i f a + r r a j j r a e e D Z j Z f W j Z i j l Z i i @ @ Z i Z j A Z = = I Z A + D ~ A Z j Z Z Q + = i a + i i b.Y.n.W.",
"u.P.H.7.f y y + r a a j j a a e e a p j a Q i j i i j i Z i i @ @ Z i P j A Z = + U Z A + D f.Z A j A i ~ + j a a + d f i i.9.9.",
"w.w.u.  E y a + a f j j F p J e e Z p j a Q i j i i g.j Z i i @ @ i i P j A Z = + W Z i + j.D Z Z j A A ~ j p i j + d d f n.5.i.",
"w.u.w.' a a i + f i j j h g.Z a a Z p = p ! Z j i i g.j Z f i @ @ i i P e D Z = + Q Z i + j.D Z i j A A A i j J j + f i i n.5.9.",
"w.u.u.T a y i + f i j = J g.h a a Z Z + ~ i Z j i K g.j P G i @ @ i i l A D A = + U i i + ! g.i i j A i h.j + p l p C f i n.5.0.",
"u.w.w.N a r i + f F l = J P J f e Z a = ! i Z = i j.A j G i i @ @ i i l A D A F + U Z i + ! D g.e j A A h.+ + h e J C p i s.5.i.",
"u.w.9.M a a i + i D l j P Z J v r A = j ! Z Z = F j.A l p i i @ i i i l Z D A K + U A i + f.A h.e j A A A = + Z e f H i i n.5.3.",
"8 8 0 M # # # + F Z l @ @ @ @ @ @ @ @ @ @ @ @ = z.i A l Z i @ @ i Z i l Z A Z Z j @ @ @ @ @ @ @ @ @ @ @ @ + + Z @ @ @ @ @ { 6./ ",
"i.G.u.: * # # # $ @ @ @ @ @ @ @ @ @ @ @ @ @ @ @ @ i I j p i @ @ i A i j U A i @ @ @ @ @ @ @ @ @ @ @ @ @ @ @ @ @ @ @ @ 7 s.W.G.` ",
"`.Q.w.: $ $ $ # Z K H $ $ @ @ @ @ @ @ @ @ @ @ v F i I j i i @ @ i A A j l A Z i j @ @ @ @ @ @ @ @ @ @ @ @ + z.Z @ @ @ @ u.w.L.L.",
";.w.3.: r i # + Z K P l p P i r a I Z j Z i = l F A I j p i @ @ A A A Z l A Z A j A Z i + i i Z D v D A i + z.A Z e F i u.n.1.w.",
";.u.2.: r a a + Z K P l P P p e a P K j Z i = j F A I j i i @ @ D A i Z l g.p A j A Z i + i i D A v D A Z + Z x.i e C i i.n.1.w.",
"%.i.=.: r i t + Z P U l I p Z r A J K = Z P Z j F I Z e i i Z @ i D i Z l z.p A j K Z i + i Z D i v D A + + Z x.i e p i i.s.s.9.",
"%.i.:.: r i r + Z P j v Z Z Z e A I Z = Z P Z j F I Z e Z A Z @ i D Z Z l Q A i j K F h + Z A D Z v D D + e A x.A e p i u.1.s.9.",
"%.9.:.: r a r + Z g.Z j p Z Z e A I Z j K A Z j F I A e A A i @ i D Z A j P A A j A F h + Z D i Z x D i + + A x.A e p i u.Z.2.q.",
"5.;.:.z r a r + Z g.Z j p Z A j Z I A j P A Z = J P A w A A i @ i D Z i j P A A j A F Z + A D i A v D Z + + A c.A e p i 8 Z.;.i.",
"3 ;.:.z r a a = Z g.~ = i Z Z j Z I + j P A Z + J F A e i i i @ i D A + j.Z P A = h.F Z + D D A A v A Z P + i c.p e C ^ T.7 7 o.",
"..3 4 > r a a = Z J j.= i Z i j A U + = P A Z + J F e e Z i i @ i D A + l.A K A + g.J A + D i A e v A Z I + Z c.p e C f E.}.{.'.",
"`.`.p.z r a r j h i j.j f p Z j A U j j A A Z + J J j e A i i @ D A A + l.A A A + g.P A + D A D x l D Z I + c.A Z e F i u.n.3.9.",
"e.Y.Q.z r i a j h a g.j d p Z j A U Z l A A A + D J j j A i i @ @ i D + l.A Z Z = g.P A + D A D l j e A P + c.A Z e F i Z.n.3.i.",
"e.5.w.z i i i j J i k.j i i Z j D U i l A A D = D J e r A i i @ @ i D + g.g.Z Z j h.K A + i A D e j e Z I + c.Z Z a H i Z.1.3.i.",
"e.3.u.z a y i + J i h.j i i Z j J U i j Z A D = A D l A Z i i @ @ i D + h.f.A Z e h.P A + f.D D A e i Z I + c.Z A e J i Z.1.1.i.",
"e.2.u.z a a i = J i k.= ! i Z j P ~ i k i A D + A Z l A A i i @ @ i D + h.A U i j h.P Z + ~ D D A j Z Z I + c.Z A e J i Z.:.1.i.",
"8.u.i.m a a i j i J h.j ! i A e I A ! l p A D + A Z l A Z i i @ @ i A A + A A e l A P Z + D U i A = A U i + c.Z e Z H i Z.5.%.i.",
"8.u.i.m a r s j i K ~ j ! i A e J A ! k h A D j A i l A Z i i @ @ i p A + g.A w v A J A + i I i A = A U i + c.Z j j H i Z.5.1.( ",
"9.w.1.N a r i j Z K ~ j ~ i D e i I ! k h A D j A Q $ e Z Z i @ @ i h Z + @ Z w h.A Z Z + D D p A j A U i + c.Z j j F i ] 3 3 ( ",
"0.1 7 - a r i j G J ! j p ! D e i P f.e h A D j Z Q @ j A Z i @ @ i Z a + @ i j h.A A i + D D i A e A U i + c.Z j = F i A.Y.S.i.",
"1 7 :.: r r i j Z ! I = i ! Z e i P f.e Z A Z j Z n @ $ A Z Z @ @ i Z e @ @ i j h.A A i + D i i D e D Q i + j.A j = F i A.u.S.Y.",
"e.`.D.: r a a j f F g.= p ~ Z e i P f.e Z A Z j % $ @ @ @ A A @ @ Z Z + @ @ $ l A A Z D + D i i P e U i i + l.A j = F i A.2.3.i.",
"!.(.:.: r a a j f p ~ = h ~ D e i K f.e Z A Z j % F Z j $ A A @ @ i Z @ e I @ $ A A Z D + i i i l w U i i + g.A j j F i A.i.1.i.",
"3.w.=.: r a a j f A ~ j Z ~ D e p J v j Z A Z j % i e e $ i A @ @ i Z @ j f.@ $ h.A Z D + i A i l e P i Z + g.A l j p i A.A.1.i.",
"i.w.-.; e a j j f A ~ j Z ~ D j Z G v j Z A Z j h.$ $ $ A D i @ @ i Z @ @ @ @ j g.Z Z D + A f.A l e P i Z H + Z l j j i u.A.1.i.",
"i.w.-.; r a j e f Z f.j p ~ D e A h b e i A D j h.Z Z e A D i @ @ i Z A v A Z l Z f.Z D + A g.D U e p J Z j + Z l Z j i u.A.1.3.",
"1.w.| j r a j j Z Z g.j p ~ D e Z h g.r Z A K j h.A Z e Z D i @ @ Z i A x A A K e Z I D = + g.D f.k Z F i + + A j A f i u.A.3.8 ",
"1.w. .; r d f j Z Z g.j Z F D e Z Z ~ r Z A P j h.A k e A A i @ @ Z i A l A A K e i Z P + + h.Z g.j K F Z + + A j Z f i u.W.X.3 ",
"7 i.| ; r s a j Z Z g.j Z h D e Z Z v t Z Z U e g.Z j A A i i @ @ i Z Z l A A K e i A K + + h.D g.j K A D + + Z j Z i i I.`.!.P.",
"r.1 - > r a y e P Z U j p h D j Z Z v a i Z f.e ~ Z J j A i @ @ @ i Z Z k A A Z l Z D i + D h.Z f.k G P D + F A j Z i i u.A.3.3.",
"!.u.5 > e a e l Z i U j i h D j Z Z b a i Z g.j ~ A K k Z i @ @ @ i Z A k Z Z Z j A D i + D h.A f.k i P D + h I e Z f i u.A.3.i.",
"%.u.R e e r e k Z i U j i Z D e A i x i i Z g.j ~ A J k Z i @ @ i i Z j k Z Z i j A D i + D i f.Y k A I D + Z ~ @ w f i u.A.3.i.",
"%.;.> * * * e j Z Z % @ $ @ @ @ @ @ @ $ @ @ g.e i g.K j Z i @ @ i i A = j i A i j @ @ $ @ @ @ @ @ @ @ @ @ + f.@ @ @ @ @ u.Z.2.i.",
"u.;.- * * * * $ @ @ @ @ $ @ @ @ @ @ @ @ @ @ @ @ @ g.F j Z i @ @ i i A = j f A @ @ @ @ @ @ @ @ @ @ @ @ @ @ @ @ @ @ @ @ @ u.C.9.i.",
";.;.| * * * a $ @ @ $ $ @ @ @ @ @ @ @ @ @ @ $ j i f.K j Z i @ $ i i Z = = p A j j @ @ @ @ @ @ @ @ @ @ @ @ @ f.@ @ @ @ @ u.C.e.i.",
";.i.@.* # * i = ~ Z A @ @ @ P j Z H e Z Z G g.j j ~ j j p i @ $ i i A + = C Z j l A i + + D Z ~ A e C i u + f.i @ @ i @ u.C.2.i.",
"u.;.w.r r a i w ~ Z A E A i I j A H e r Z G ~ j j ~ j j C i @ $ i Z A + = C i j x i i + + D Z U D j A i p = + i y r i i u.A.3.0.",
"u.%.u.M r a a e ~ i A j D i I j H G i r G Z L e j ~ j j C i @ @ p Z A + I p i j l Z i + + D i U p e A i I + + Z k Z Z i u.1 1 1 ",
"w.;.1 > r a a j ~ i Z j D J D j H i i y Z Z P = l A A l C i @ @ f Z D + b p i j U Z i + + D ! Z p e A i I + L A j Z Z i p.W.D.3.",
"<.1 1 z e y e e Z ! Z j A J D j Z p F r Z Z g.= l Z A j J i @ @ i Z D + v j Z j U Z f D + D Q i f j A Z J + C A e G Z i Z.D.D._.",
"/.!.3.z e r e w Z ~ Z j A I D j i F i v Z g.Z = ~ Z A j v i @ @ @ f D + f e Z j U Z F D + D ~ i f j A Z H + G Z j C Z i u.Z.5.i.",
"i.u.;.z r a e e H f.A j A I D j Z F r f Z g.Z = I i r e b i @ @ @ f D i e l Z j U i J D + U D A S j D H H + G Z j F G Z u.Z.5.i.",
"i.u.@.: e a a e H ~ A l D Z D j Z J v a g.A A = P i Z e b i @ @ @ f C i e j A j U i W D + U D D S j D A Z + C Z r C H i q.Z.9.i.",
"i.i.*.: y a a w Z ~ A Q D Z i j Z i v a h.Z = e J i A e b i i @ @ i C Z j j A j A Q J D + J D D D j D A Z + G Z j f G i 9.Z.5.i.",
"0.w.=.: y a a w Z Z f.e A Z i j Z i e ! K A = j G i A v e i i @ @ i F A = j A A = f.D D + F D D D = Z f.i + G Z j G G i w.` 7 _ ",
"` 1 2 : y a a e Z Z ~ l A Z Z j Z Z e j.J A + j p Z A v A i i @ @ i F A + = D A = g.D D + f D D D = A g.i + G G j G G i E.{.L.`.",
"!.(.2 - r i s e A Z Z = Z Z i j Z Z b e i A i Z j Z A v A A Z @ @ f H A + Z A A j Z f.D + + D D D = h.A Z + Z H j j p i Y.{.L.i.",
"i.u.@.5 a y p r A i A j Z Z i j Z Z v a Z A Z e = Z g.e A A A @ @ i Z A + Z A A e Z U D + + D D A + h.Z A + Z F j j C i u.Z.1.i.",
"i.u.;.5 a a Z e Z i i j Z Z i j i i i e Z A Z j j ~ f.w i A i @ @ i A i + Z Z i e Z i J + + D D i + h.Z Z + Z i j j C i w.1.0.0.",
"i.i.1.5 i i Z r A i i i A Z i j i i i Z Z i i j i i i a i i i i @ i i i + i i i Z i i i + + D D a + f.i Z + i i j j F i u.1.1.i."
};
